<?xml version="1.0" encoding="UTF-8"?>
<svg width="14px" height="13px" viewBox="0 0 14 13" version="1.1" xmlns="http://www.w3.org/2000/svg" xmlns:xlink="http://www.w3.org/1999/xlink">
    <title>exclamationmark.triangle.fill</title>
    <g id="exclamationmark.triangle.fill" stroke="none" fill="none" fill-rule="nonzero">
        <path d="M1.7134482,12.5379281 L12.0916159,12.5379281 C13.1637949,12.5379281 13.8102017,11.7889262 13.8102017,10.8398823 C13.8102017,10.5320445 13.722946,10.2140155 13.5536877,9.92156966 L8.36714646,0.851591721 C8.04396932,0.282154339 7.47452196,6.53209596e-15 6.9050746,6.53209596e-15 C6.33053162,6.53209596e-15 5.7662324,0.282154339 5.44300273,0.851591721 L0.256503992,9.92156966 C0.0820813196,10.2191112 -1.02647222e-14,10.5320445 -1.02647222e-14,10.8398823 C-1.02647222e-14,11.7889262 0.646391049,12.5379281 1.7134482,12.5379281 Z" id="Path" fill="#FFCC00"></path>
        <path d="M6.9050746,8.1465644 C6.6075331,8.1465644 6.44337046,7.97215802 6.43827485,7.66432024 L6.35616726,4.05276319 C6.35101912,3.74496218 6.57674932,3.52436436 6.89997899,3.52436436 C7.21800798,3.52436436 7.44888632,3.7500893 7.44373818,4.05789557 L7.36168313,7.66432024 C7.35653499,7.97725362 7.18722421,8.1465644 6.9050746,8.1465644 Z M6.9050746,10.2858269 C6.54086993,10.2858269 6.23303215,9.99338096 6.23303215,9.63942005 C6.23303215,9.28031099 6.53572179,8.98791763 6.9050746,8.98791763 C7.26933179,8.98791763 7.57711704,9.27516285 7.57711704,9.63942005 C7.57711704,9.9985291 7.26418365,10.2858269 6.9050746,10.2858269 Z" id="Shape" fill="#FFFFFF"></path>
    </g>
</svg>