<?xml version="1.0" encoding="UTF-8"?>
<svg width="51px" height="45px" viewBox="0 0 51 45" version="1.1" xmlns="http://www.w3.org/2000/svg" xmlns:xlink="http://www.w3.org/1999/xlink">
    <title>teams</title>
    <g id="teams" stroke="none" fill="none" fill-rule="evenodd" stroke-width="1">
        <g id="Group" fill="#FFFFFF">
            <path d="M48.3553,15.9839 C48.8391,15.9839 49.3032,16.2209 49.6453,16.6421 C49.9875,17.0636 50.1795,17.6358 50.1795,18.2319 L50.1795,29.3774 C50.1789,30.4927 49.9764,31.5934 49.5868,32.6001 C49.197,33.6069 48.6299,34.494 47.9266,35.1968 C47.2235,35.8994 46.4023,36.4002 45.5223,36.6626 C44.6421,36.9249 43.725,36.9424 42.8387,36.7134 C41.4472,36.3172 40.2085,35.3443 39.3299,33.9575 C38.4514,32.5707 37.9862,30.854 38.0125,29.0952 L38.0125,16.9429 C38.0126,16.6887 38.095,16.4449 38.2411,16.2651 C38.3869,16.0855 38.5846,15.9839 38.7909,15.9839 L48.3553,15.9839 Z M43.3368,3.99658 C46.2773,3.99682 48.6608,6.34458 48.661,9.24072 C48.661,12.137 46.2774,14.4856 43.3368,14.4858 C40.3958,14.4858 38.0116,12.1372 38.0116,9.24072 C38.0116,6.34444 40.3959,3.99658 43.3368,3.99658 Z" id="Shape" fill-opacity="0.7" fill-rule="nonzero" opacity="0.8"></path>
            <path d="M37.2485,15.4844 C37.6128,15.4849 37.9742,15.5543 38.311,15.6914 C38.5002791,15.7684701 38.6801686,15.8658317 38.8473435,15.9814864 L38.7909,15.9839 C38.5846,15.9839 38.3869,16.0855 38.2411,16.2651 C38.095,16.4449 38.0126,16.6887 38.0125,16.9429 L38.0125,29.0952 C37.9862,30.854 38.4514,32.5707 39.3299,33.9575 C39.4866927,34.2049848 39.6549536,34.4392881 39.8348959,34.6587259 C39.4817709,36.6168944 38.6562663,38.4752874 37.4146,40.0703 C35.7169,42.2508 33.3361,43.8175 30.644,44.5283 C27.9523,45.2389 25.0969,45.0546 22.522,44.0039 C19.9472,42.9532 17.7945,41.0941 16.3999,38.7139 C16.0957,38.2138 15.8303,37.6919 15.6079,37.1523 C15.3998,36.6432 15.2262,36.1216 15.0855,35.5918 C14.8233,34.5678 14.6899,33.5197 14.6879874,32.4678 L14.6879874,18.2324 C14.6875,17.8704 14.7597,17.5118 14.8999,17.1777 C15.0401,16.8437 15.2457,16.5401 15.5044,16.2852 C15.7631,16.0304 16.0706,15.8287 16.4077,15.6914 C16.7446,15.5543 17.1059,15.4849 17.4702,15.4854 L37.2485,15.4844 Z M27.3599,1.0658141e-14 C31.2813,1.0658141e-14 34.4605,3.13102 34.4605,6.99316 C34.4605,10.8554 31.2813,13.9863 27.3599,13.9863 C23.4384,13.9863 20.2593,10.8554 20.2593,6.99316 C20.2593,3.13102 23.4384,1.0658141e-14 27.3599,1.0658141e-14 Z" id="Combined-Shape" fill-opacity="0.7" fill-rule="nonzero"></path>
            <path d="M22.8145,7.90088 C23.4825,7.90088 24.125,8.16214 24.5996,8.62939 C25.0743,9.09698 25.3428,9.73337 25.3428,10.3979 L25.3428,30.3784 C25.3428,31.0431 25.0743,31.6793 24.5996,32.147 C24.1249,32.6145 23.4825,32.8755 22.8145,32.8755 L2.52832,32.8755 C1.86032,32.8755 1.21782,32.6145 0.743164,32.147 C0.268478,31.6793 0,31.0431 0,30.3784 L0,10.3979 C0,9.73337 0.268465,9.09698 0.743164,8.62939 L0.928711,8.46436 C1.37871,8.10123 1.94374,7.90088 2.52832,7.90088 L22.8145,7.90088 Z M6.61621,12.9048 L6.61621,15.856 L11.1924,15.856 L11.1924,27.8735 L14.1777,27.8735 L14.1777,15.856 L18.7266,15.856 L18.7266,12.9048 L6.61621,12.9048 Z" id="Shape" fill-rule="nonzero"></path>
        </g>
    </g>
</svg>