<svg width="29" height="33" viewBox="0 0 29 33" fill="none" xmlns="http://www.w3.org/2000/svg">
<path d="M10.127 8.27148C11.4258 7.80273 12.7148 8.38867 13.2324 9.81445L14.6973 13.8477C14.9707 13.6523 15.2539 13.4863 15.5371 13.3789C16.5527 13.0176 17.5195 13.3105 18.125 14.1309C18.4375 13.8867 18.7598 13.6914 19.1309 13.5645C20.0977 13.2031 20.9961 13.4766 21.5625 14.2285C23.7207 13.4766 25.5176 14.5801 26.5137 17.3047L27.4219 19.7949C29.4141 25.293 27.2461 29.6973 22.4219 31.4453C18.3496 32.9199 14.6973 31.7676 11.6309 28.0469L7.33398 22.8516C7.07033 22.5195 6.83594 22.1094 6.71875 21.7773C6.25977 20.5273 6.97266 19.4629 8.07617 19.0625C8.88672 18.7793 9.72658 18.9941 10.4492 19.7754L12.2168 21.7188C12.2559 21.7675 12.3047 21.7871 12.3535 21.7676C12.4121 21.7383 12.4316 21.6895 12.4121 21.6309L8.70117 11.4648C8.19337 10.0294 8.79881 8.75978 10.127 8.27148ZM11.8359 10.2344C11.6309 9.65818 11.1426 9.40431 10.6055 9.58984C10.0586 9.79493 9.82419 10.3125 10.0391 10.8789L14.4336 22.9395C14.6191 23.4667 14.4043 23.9355 13.9355 24.1113C13.5449 24.248 13.1348 24.1992 12.7051 23.7402L9.80469 20.6934C9.45313 20.3125 9.09179 20.1562 8.68164 20.3125C8.1543 20.498 7.95898 20.9863 8.125 21.4355C8.20312 21.6602 8.29103 21.8066 8.4375 21.9629L12.7246 27.1484C15.5176 30.5273 18.6426 31.2402 21.9531 30.0293C26.0742 28.5254 27.7539 24.9316 25.9961 20.1367L25.2246 17.998C24.4922 16.0059 23.457 15.127 22.3047 15.5469L22.8125 16.9629C22.959 17.373 22.7441 17.7344 22.4121 17.8613C22.0605 17.9883 21.6504 17.8516 21.5039 17.4414L20.8594 15.6738C20.6152 14.9805 20.0781 14.707 19.4238 14.9414C19.1797 15.0293 18.9062 15.2051 18.7207 15.3809L19.5312 17.6465C19.6875 18.0469 19.4727 18.4082 19.1309 18.5352C18.7793 18.662 18.3789 18.5254 18.2227 18.1152L17.2754 15.498C17.0215 14.8047 16.4844 14.5312 15.8496 14.7656C15.5957 14.8438 15.332 15.0293 15.127 15.2148L16.2695 18.3203C16.4062 18.6914 16.2305 19.082 15.8594 19.209C15.498 19.3457 15.0977 19.1699 14.9609 18.7988L11.8359 10.2344ZM4.63867 10.1172C5.0293 10.1172 5.35156 10.4395 5.35156 10.8398C5.35154 11.2305 5.02929 11.5527 4.63867 11.5527L0.712891 11.543C0.322266 11.543 0 11.2207 0 10.8301C1.17692e-05 10.4297 0.322273 10.1074 0.712891 10.1074L4.63867 10.1172ZM17.5195 3.17383C17.8125 2.90041 18.252 2.91019 18.5352 3.17383C18.8086 3.4668 18.8184 3.91602 18.5352 4.18945L15.7715 6.97266C15.4785 7.24608 15.0391 7.23632 14.7559 6.97266C14.4824 6.67969 14.4727 6.23047 14.7559 5.95703L17.5195 3.17383ZM3.16406 3.16406C3.44727 2.90039 3.89648 2.89062 4.17969 3.16406L6.94336 5.94727C7.22656 6.23047 7.20703 6.67969 6.94336 6.96289C6.65039 7.23633 6.21094 7.24609 5.91797 6.96289L3.16406 4.17969C2.88086 3.89648 2.89062 3.44727 3.16406 3.16406ZM10.8496 0C11.25 5.11713e-06 11.5723 0.322269 11.5723 0.712891L11.5625 4.62891C11.5625 5.02929 11.2402 5.35156 10.8496 5.35156C10.4492 5.35156 10.127 5.0293 10.127 4.62891L10.1367 0.712891C10.1367 0.322266 10.459 0 10.8496 0Z" fill="white" fill-opacity="0.85"/>
</svg>
